<!-- icon666.com - MILLIONS vector ICONS FREE --><svg id="Layer_1" enable-background="new 0 0 512 512" viewBox="0 0 512 512" xmlns="http://www.w3.org/2000/svg" xmlns:xlink="http://www.w3.org/1999/xlink"><linearGradient id="SVGID_1_" gradientUnits="userSpaceOnUse" x1="4.797" x2="507.141" y1="513.409" y2="11.066"><stop offset="0" stop-color="#fb2e7b"></stop><stop offset="1" stop-color="#ff855d"></stop></linearGradient><path d="m428.8 324.1c-25.2 1.2-44.4 22.4-43.2 47.4 1.1 24.2 21.2 43.2 45.3 43.2 25.9 0 45.4-21.1 45.4-45.3 0-24.7-20.3-46.4-47.5-45.3zm-350 0c-25.1 1.2-44.4 22.2-43.2 47.4 1.1 24.2 21.2 43.2 45.3 43.2 25.6 0 45.4-20.8 45.4-45.1-.1-26.7-22-46.6-47.5-45.5zm379.4 98.6h-54.2c-29.7 0-53.8 24.1-53.8 53.8v30.1c0 2.9 2.4 5.3 5.3 5.3 10 0 150.8-.8 151.1 0 2.9 0 5.3-2.4 5.3-5.3v-30.1c.1-29.6-24-53.8-53.7-53.8zm-175.1 0h-54.1c-29.7 0-53.8 24.1-53.8 53.8v30.1c0 2.9 2.4 5.3 5.3 5.3h151.1c2.9 0 5.3-2.4 5.3-5.3v-30.1c.1-29.6-24.1-53.8-53.8-53.8zm-174.9 0h-54.2c-29.6 0-53.8 24.1-53.8 53.8v30.1c0 2.9 2.3 5.3 5.3 5.3h151.1c3 0 5.3-2.4 5.3-5.3v-30.1c.1-29.6-24.1-53.8-53.7-53.8zm145.6-98.6c-24.9 1.1-44.4 22.4-43.2 47.4 1.1 24.2 21.2 43.2 45.3 43.2 26 0 46.4-21.5 45.3-47.3-1.1-24.5-21.5-44.3-47.4-43.3zm74.3-184.3c-8.5 0-16.4 5-20 12.7-1.9 4.1-7.8 4.1-9.6.1-3.7-7.8-11.5-12.7-20-12.7-12.2 0-22.1 9.9-22.1 22.1 0 23.1 31.5 50.2 47 61.1 10.7-7.7 46.9-35.7 46.9-61.1-.1-12.4-10-22.2-22.2-22.2zm-49.7-10.7c9.6 0 18.7 4.3 24.8 11.4 6.1-7.1 15.2-11.4 24.8-11.4 5 0 9.6 1.1 13.9 3.1 5.3-11.2 8-21.8 8-31.6 0-25.9-21.1-46.9-46.9-46.9-18.1 0-34.8 10.6-42.4 27-1.9 4.1-7.7 4.1-9.6.1-7.7-16.5-24.4-27.1-42.5-27.1-25.9 0-46.9 21-46.9 46.9 0 53.5 78 110.9 94.2 122.3 3.3-2.3 9.2-6.6 16.4-12.3-13.4-13.4-26.6-31.1-26.6-48.9.1-17.9 14.8-32.6 32.8-32.6zm206.7-129h-458.4c-14.7 0-26.7 11.9-26.7 26.7v224.4c0 14.7 12 26.7 26.7 26.7h458.5c14.7 0 26.7-11.9 26.7-26.7v-224.4c-.1-14.8-12.1-26.7-26.8-26.7zm-178.9 233.8c-1.8 1.2-4.1 1.2-5.9 0-.9-.6-9.9-6.6-20.3-15.8-12.2 9.8-21 15.6-21.3 15.8-1.8 1.1-4.1 1.2-5.9-.1-4.2-2.7-101.9-68.2-101.9-133.2 0-31.7 25.9-57.5 57.6-57.5 18.9 0 36.6 9.5 47.3 24.8 10.6-15.3 28.3-24.8 47.3-24.8 31.7 0 57.6 25.8 57.6 57.5 0 11.8-3.3 24.5-9.8 37.7 6.1 6 10 14.3 10 23.5 0 35.5-52.4 70.6-54.7 72.1z" fill="url(#SVGID_1_)"></path></svg>